<?xml version="1.0" standalone="no"?>
<!DOCTYPE svg PUBLIC "-//W3C//DTD SVG 1.1//EN" "http://www.w3.org/Graphics/SVG/1.1/DTD/svg11.dtd" >
<svg xmlns="http://www.w3.org/2000/svg" xmlns:xlink="http://www.w3.org/1999/xlink" version="1.1">
<metadata></metadata>
<defs>
<font id="grandesign_neue_serifbold" horiz-adv-x="1081" >
<font-face units-per-em="2048" ascent="1638" descent="-410" />
<missing-glyph horiz-adv-x="413" />
<glyph horiz-adv-x="0" />
<glyph unicode="&#xd;" horiz-adv-x="413" />
<glyph unicode=" "  horiz-adv-x="413" />
<glyph unicode="&#x09;" horiz-adv-x="413" />
<glyph unicode="&#xa0;" horiz-adv-x="413" />
<glyph unicode="!" horiz-adv-x="548" d="M90 164q0 82 51 134t133 52q81 0 132 -52t51 -134q0 -83 -50 -135t-133 -52h-2q-82 0 -132 52.5t-50 134.5zM110 1378h326l-45 -925h-235z" />
<glyph unicode="&#x22;" horiz-adv-x="813" d="M71 1417h276l-47 -555h-182zM464 1417h277l-47 -555h-183z" />
<glyph unicode="#" horiz-adv-x="1126" d="M75 367v188h199l32 229h-174v191h203l51 356h183l-52 -356h187l53 356h182l-53 -356h164v-191h-193l-32 -229h170v-188h-201l-51 -367h-185l52 367h-187l-51 -367h-184l53 367h-166zM456 555h186l33 229h-186z" />
<glyph unicode="$" horiz-adv-x="1136" d="M112 104l61 240q168 -90 340 -90q197 0 197 127q0 105 -217 178q-369 124 -369 375q0 148 102 246q93 90 244 118v195h201v-180q168 -6 297 -68l-59 -231q-158 69 -295 69q-176 0 -176 -114q0 -88 245 -176q165 -59 242 -134q100 -97 100 -249q0 -154 -108 -257 q-98 -95 -256 -122v-209h-201v194q-209 9 -348 88z" />
<glyph unicode="%" horiz-adv-x="1802" d="M55 936q0 177 96 293q104 125 277 125h2q171 0 266 -115q90 -107 90 -281q0 -178 -94 -297q-102 -129 -275 -129q-167 0 -268 121q-94 113 -94 283zM288 942q-1 -87 26 -152q36 -88 112 -88q131 0 131 242q0 240 -133 240h-2q-132 0 -134 -242zM432 -23l766 1375h166 l-764 -1375h-168zM1013 383q0 179 95 294q103 124 278 124h2q170 0 266 -115q91 -107 91 -280q0 -181 -93 -297q-100 -127 -276 -127q-168 0 -268 119q-95 111 -95 282zM1249 391q-1 -239 135 -239q131 0 131 239q0 240 -131 240h-2q-132 0 -133 -240z" />
<glyph unicode="&#x26;" horiz-adv-x="1388" d="M63 369q0 260 262 395v8q-104 117 -104 266q0 145 102 248q116 117 311 117q157 0 261 -82q114 -89 114 -242q0 -217 -272 -354l-2 -8q82 -94 231 -258q84 131 117 336h278q-59 -336 -229 -525q80 -90 244 -270h-363q-45 47 -90 98q-153 -121 -379 -121q-199 0 -332 94 q-149 107 -149 298zM358 420q0 -97 66 -157t163 -60h2q115 0 189 69q-78 76 -312 338q-108 -78 -108 -190zM501 1067q0 -96 94 -199q152 103 152 203q0 55 -33 94q-34 43 -88 43h-2q-56 0 -89.5 -42t-33.5 -99z" />
<glyph unicode="'" horiz-adv-x="419" d="M71 1417h276l-47 -555h-182z" />
<glyph unicode="(" horiz-adv-x="643" d="M122 588q0 487 234 827h217q-207 -338 -207 -829q0 -477 207 -824h-217q-234 339 -234 826z" />
<glyph unicode=")" horiz-adv-x="643" d="M71 -238q207 342 207 828q0 483 -207 825h217q234 -338 234 -825q0 -484 -234 -828h-217z" />
<glyph unicode="*" horiz-adv-x="929" d="M61 893v207l317 -64l2 4l-217 260l183 103l114 -313h4l117 313l180 -103l-221 -260l2 -6l326 66v-207l-328 55l-2 -4l223 -254l-182 -104l-117 315h-4l-118 -315l-177 104l220 260z" />
<glyph unicode="+" horiz-adv-x="1220" d="M81 451v192h428v447h201v-447h428v-192h-428v-451h-201v451h-428z" />
<glyph unicode="," horiz-adv-x="532" d="M4 -244q102 291 147 582l318 20q-111 -346 -258 -583z" />
<glyph unicode="-" horiz-adv-x="659" d="M61 434v207h537v-207h-537z" />
<glyph unicode="." horiz-adv-x="532" d="M102 166q0 84 50 137t134 53t133.5 -53t49.5 -137t-50.5 -136.5t-134.5 -52.5h-2q-81 0 -130.5 54t-49.5 135z" />
<glyph unicode="/" horiz-adv-x="677" d="M32 -82l438 1485h207l-438 -1485h-207z" />
<glyph unicode="0" horiz-adv-x="1182" d="M72 496q0 205 140 356q150 162 378 162q229 0 378 -161q141 -151 141 -357q0 -201 -137 -352q-150 -167 -382 -167q-228 0 -378 162q-140 151 -140 357zM384 496q0 -96 47 -177q58 -99 157 -99t157 99q48 82 48 177q0 103 -58 189t-147 86q-98 0 -156 -99 q-48 -82 -48 -176z" />
<glyph unicode="1" horiz-adv-x="1194" d="M212 825l352 165h236v-773h179v-217h-666v217q150 0 175 5l4 466q-78 -38 -213 -102z" />
<glyph unicode="2" horiz-adv-x="1186" d="M92 0v229q285 113 361 150q276 134 276 233q0 151 -196 151q-77 0 -156 -37q-5 -16 -5 -153h-246v288q201 152 443 152q208 0 337 -98q137 -103 137 -283q0 -127 -100 -233q-70 -75 -219 -161q141 12 352 12v-250h-984z" />
<glyph unicode="3" horiz-adv-x="1196" d="M86 -244l93 241q186 -106 331 -106q111 0 177 53q60 48 60 117q0 75 -69 127q-78 59 -212 59h-167v245h168q86 0 150 32q79 39 79 112q0 121 -167 121q-62 0 -130 -23q-5 -9 -5 -161h-246v315q185 124 416 124q189 0 313 -88q136 -96 136 -263q0 -178 -155 -280 q93 -37 151 -133q54 -89 54 -187q0 -202 -170 -319q-154 -106 -382 -106q-233 0 -425 120z" />
<glyph unicode="4" horiz-adv-x="1184" d="M30 -10v187l625 814h297v-752h187v-249h-187v-107h179v-223h-662v223q148 0 173 6q1 -2 6 -6v107h-618zM409 239h239v305z" />
<glyph unicode="5" horiz-adv-x="1197" d="M86 -254l87 244q182 -100 323 -100q103 0 175.5 55.5t72.5 148.5q-1 211 -316 211q-87 0 -263 -26l106 712h763v-259h-517l-30 -179h29q232 0 382 -111q162 -121 162 -332q0 -212 -171 -347q-159 -125 -391 -125q-222 0 -412 108z" />
<glyph unicode="6" horiz-adv-x="1184" d="M69 556q0 318 183 528q189 217 526 257q88 11 207 11v-259q-191 5 -300 -30q-142 -46 -230 -176q85 32 193 32q215 0 344 -131q124 -125 124 -323q0 -205 -140 -344q-144 -144 -369 -144q-261 0 -407 177q-131 158 -131 402zM380 491q0 -100 57.5 -182t169.5 -82 q98 0 150 73q43 62 43 156q0 101 -53.5 159t-153.5 58q-133 0 -198 -115q-15 -27 -15 -67z" />
<glyph unicode="7" horiz-adv-x="1184" d="M116 734v257h974v-183l-605 -1148h-335l577 1074h-611z" />
<glyph unicode="8" horiz-adv-x="1184" d="M75 367q0 212 204 332q-153 85 -153 270q0 176 146 284q135 101 331 101q190 0 317 -91q139 -99 139 -269q0 -185 -170 -293q99 -28 159 -110.5t60 -198.5q0 -192 -159 -308q-146 -107 -361 -107q-207 0 -352 98q-161 108 -161 292zM395 388q-2 -79 56 -125 q55 -44 142 -44q86 0 141 38q60 41 60 117q0 139 -226 202q-170 -51 -173 -188zM434 981q-1 -110 185 -160q138 48 138 157q0 64 -41.5 100t-114.5 36q-166 0 -167 -133z" />
<glyph unicode="9" horiz-adv-x="1184" d="M83 522q0 206 148.5 349t373.5 143q253 0 389 -180q118 -156 118 -394q0 -375 -219 -587t-600 -212q-47 0 -97 4v256q105 -8 135 -8q285 0 411 231q-88 -35 -201 -35q-203 0 -332 125q-126 122 -126 308zM395 531q0 -86 46 -139q51 -58 143 -58q140 0 204 100q8 12 8 28 q0 132 -47 214q-52 88 -159 88q-97 0 -150 -76q-45 -64 -45 -157z" />
<glyph unicode=":" horiz-adv-x="532" d="M100 164q0 83 50.5 135.5t133.5 52.5q82 0 132 -53t51 -135t-51 -134.5t-134 -52.5h-2q-80 0 -130 53.5t-50 133.5zM102 825q0 83 50.5 136t133.5 53q82 0 132 -53.5t51 -135.5q1 -81 -51.5 -133.5t-133.5 -52.5h-2q-80 0 -130 53t-50 133z" />
<glyph unicode=";" horiz-adv-x="532" d="M4 -244q102 291 150 582l313 20q-111 -346 -258 -583zM115 825q0 82 50 135.5t132 53.5q84 0 133 -52.5t49 -136.5q0 -82 -50 -134t-132 -52h-2q-81 0 -130.5 52.5t-49.5 133.5z" />
<glyph unicode="&#x3c;" horiz-adv-x="1220" d="M118 457v176l983 457v-218l-743 -325v-4l743 -326v-217z" />
<glyph unicode="=" horiz-adv-x="1220" d="M81 242v190h1057v-190h-1057zM81 666v190h1057v-190h-1057z" />
<glyph unicode="&#x3e;" horiz-adv-x="1220" d="M118 0v217l760 326v4l-760 325v218l983 -451v-188z" />
<glyph unicode="?" horiz-adv-x="911" d="M98 1321q143 84 342 84q167 0 273 -74q120 -85 120 -246q0 -103 -57 -198q-29 -48 -117 -146q-104 -116 -104 -256v-36h-273l-2 53q-6 167 121 319q119 142 119 215q0 122 -150 123q-111 1 -202 -61zM229 164q0 82 50 134t132 52t133 -52t52 -134t-51 -134.5t-134 -52.5 h-2q-82 0 -131 52.5t-49 134.5z" />
<glyph unicode="@" horiz-adv-x="1576" d="M104 623q0 335 216 557.5t550 222.5q267 0 440 -161q178 -166 178 -431q0 -199 -93 -333q-107 -154 -296 -154q-159 0 -176 157h-4q-98 -157 -264 -157q-111 0 -173 79q-56 73 -56 187q0 207 136 342t343 135q153 0 243 -51l-61 -379q-8 -50 -8 -86q0 -90 59 -92 q75 -2 133 84q66 98 66 262q0 217 -135.5 345t-354.5 128q-264 0 -429 -189q-158 -180 -158 -448q0 -245 140 -391t384 -146q170 0 297 64l37 -117q-164 -74 -375 -74q-281 0 -460 182.5t-179 463.5zM630 614q0 -127 103 -127q65 0 119 77q45 66 55 138l28 195q-30 8 -63 8 q-109 0 -178 -94q-64 -85 -64 -197z" />
<glyph unicode="A" horiz-adv-x="1623" d="M51 0v224q169 0 176 3l431 1153h310l431 -1152q9 -4 177 -4v-224h-622v224q70 0 114 2l-63 170h-393l-61 -171q22 -1 116 -1v-224h-616zM694 644h229q-40 102 -115 306l-9 -23z" />
<glyph unicode="B" horiz-adv-x="1425" d="M155 0v224q147 0 173 7q1 -2 6 -5v931h-179v225q95 0 286 5t286 5q232 0 380 -80q181 -98 181 -296q0 -167 -153 -273q93 -39 151 -135q54 -90 54 -188q0 -233 -215 -345q-165 -86 -416 -86h-33q-530 11 -521 11zM646 240q35 -2 83 -2q289 0 289 184q0 89 -77 135.5 t-213 46.5h-82v-364zM646 849h97q93 0 154 33q76 40 76 118q0 145 -235 145q-53 0 -92 -4v-292z" />
<glyph unicode="C" horiz-adv-x="1328" d="M73 679q0 321 218 522t569 201q227 0 395 -80v-355h-246q0 164 3 156q-2 4 -4 6q-68 14 -142 14q-228 0 -352 -127q-119 -121 -119 -332q0 -207 117 -324q121 -121 345 -121q158 0 337 79l69 -250q-193 -90 -443 -90q-343 0 -547 194q-200 191 -200 507z" />
<glyph unicode="D" horiz-adv-x="1677" d="M155 0v223q147 0 173 7l6 926q-4 1 -179 1v224q104 0 313 5t313 5q375 0 589 -160q232 -174 232 -510t-218 -534q-220 -199 -625 -199h-35q-570 11 -570 12h1zM647 244q45 -2 112 -2q521 0 521 473q0 206 -117 312q-124 112 -374 112q-78 0 -142 -7v-888z" />
<glyph unicode="E" horiz-adv-x="1321" d="M155 0v224q149 0 174 6l5 926h-179v224h1059v-421h-246q0 136 -6 158l-315 4v-275h535v-261l-535 4v-332h352q1 4 1 164h245v-421h-1090z" />
<glyph unicode="F" horiz-adv-x="1310" d="M155 0v224q149 0 174 6l5 926h-179v224h1056v-421h-245q0 134 -7 158l-312 4v-295h521v-420h-245q0 133 -7 158l-269 4v-344h179v-224h-671z" />
<glyph unicode="G" horiz-adv-x="1456" d="M73 683q0 323 231 519q225 192 582 192q226 0 412 -80v-356h-246q0 31 3 117q2 38 -5 46q-74 15 -168 15q-229 0 -358 -118t-129 -327q0 -206 119 -325q123 -123 346 -123q107 0 170 16v271h-279v253h588v-709q-257 -88 -491 -88q-356 0 -564 185q-211 188 -211 512z" />
<glyph unicode="H" horiz-adv-x="1827" d="M155 0v224q149 0 174 6q1 -2 5 -5v930l-5 -5q-25 6 -174 6v224h671v-224q-149 0 -174 -6l-4 -297h532v302q-3 -2 -5 -5q-25 6 -174 6v224h672v-224q-149 0 -174 -6l-5 -926h179v-224h-672v224q149 0 174 6q1 -2 5 -5v365h-533v-366h179v-224h-671z" />
<glyph unicode="I" horiz-adv-x="982" d="M155 0v224q149 0 174 6q1 -2 5 -5v930l-5 -5q-25 6 -174 6v224h671v-224q-149 0 -174 -6l-5 -926h179v-224h-671z" />
<glyph unicode="J" horiz-adv-x="899" d="M8 31l50 253q132 -46 202 -46q117 0 157 76q28 52 28 176v665h-179v225h492v-903q0 -500 -484 -500q-125 0 -266 54z" />
<glyph unicode="K" horiz-adv-x="1481" d="M155 0v224q149 0 174 6l5 926h-179v224h670v-224q-149 0 -174 -6l-3 -259l236 265h-14v224h561v-224q-123 0 -162 -5l-347 -371l410 -551q34 -5 169 -5v-224h-582v224h45l-259 354l-59 -61v-293h179v-224h-670z" />
<glyph unicode="L" horiz-adv-x="1280" d="M155 0v224q149 0 174 6l5 926h-179v224h671v-224q-149 0 -174 -6l-5 -891h344v164h246v-423h-1082z" />
<glyph unicode="M" horiz-adv-x="2114" d="M118 0v224q58 0 111.5 -6.5t54.5 -6.5q12 0 12 8l73 937q2 0 -167 0v224h520l174 -440q103 -264 162 -449q29 134 187 521q78 184 155 368h521v-224q-170 0 -168 0l64 -933q2 2 5 6q26 -5 173 -5v-224h-656v224q174 0 169 -1l-34 593q-23 -64 -320 -808h-230 q-100 259 -290 777q-8 -561 -35 -561h168v-224h-649z" />
<glyph unicode="N" horiz-adv-x="1841" d="M155 0v224q149 0 174 6l5 926h-179v224h479q145 -206 290 -411q179 -254 287 -428q-7 91 -7 251v363q-3 -1 -6 -5q-25 6 -174 6v224h661v-224q-150 0 -175 -6l-5 -1150h-285q-204 287 -590 868q6 -91 6 -269v-375h179v-224h-660z" />
<glyph unicode="O" horiz-adv-x="1545" d="M73 679q0 306 182 508q196 216 526 216q321 0 511 -207q177 -194 177 -492q0 -336 -207 -537q-196 -190 -499 -190q-321 0 -512 209q-178 195 -178 493zM395 683q0 -177 86 -302q102 -148 286 -148q192 0 293 151q84 126 84 311q0 188 -96 316q-103 136 -277 136 q-191 0 -292 -152q-84 -127 -84 -312z" />
<glyph unicode="P" horiz-adv-x="1404" d="M155 0v224q149 0 174 6l5 927h-179v224q98 0 294.5 5t294.5 5q249 0 401 -99q175 -113 175 -331q0 -190 -127 -311q-165 -157 -470 -157q-43 0 -77 2v-271h179v-224h-670zM646 749q35 -4 81 -4q280 0 280 208q0 92 -66 139.5t-193 47.5q-58 0 -102 -4v-387z" />
<glyph unicode="Q" horiz-adv-x="1567" d="M73 670q0 312 182 515q195 218 528 218q321 0 510 -210q176 -195 176 -496q0 -407 -282 -595q140 -29 314 -56l-97 -261q-312 74 -594 163q-76 24 -215 47q-113 19 -172 47q-89 42 -179 142q-171 193 -171 486zM397 674q0 -179 86 -304q102 -148 286 -148q192 0 293 152 q84 127 84 315q0 190 -96 320q-101 136 -273 136q-192 0 -295 -155q-85 -128 -85 -316z" />
<glyph unicode="R" horiz-adv-x="1536" d="M155 0v224q149 0 174 6q1 -2 5 -5v932h-179v224q98 0 294.5 5t294.5 5q248 0 397 -87q178 -104 178 -317q0 -217 -200 -333q77 -40 129 -193q32 -117 64 -235q2 -2 177 -2v-224h-413q-36 60 -94 275q-51 189 -98 231q-43 39 -136 39h-102v-321h179v-224h-670zM646 791 h116q104 0 169 40q75 47 75 138q0 173 -250 173q-64 0 -110 -4v-347z" />
<glyph unicode="S" horiz-adv-x="1142" d="M86 90v339h246q0 -156 4 -162q85 -29 182 -29q222 0 222 153q0 77 -70 127q-45 31 -147 65q-408 136 -408 416q0 189 158 301q144 102 356 102q206 0 371 -87v-348h-245q0 28 3 117q1 37 -5 45q-63 15 -130 15q-194 0 -194 -127q0 -71 82 -121q40 -25 149 -64 q188 -67 280 -154q115 -109 115 -274q0 -182 -141 -300q-149 -125 -409 -125q-240 0 -419 111z" />
<glyph unicode="T" horiz-adv-x="1151" d="M-2 957v423h1156v-423h-246q0 136 -6 159l-170 3v-895h179v-224h-671v224q148 0 173 6q1 -2 6 -5v895h-175v-163h-246z" />
<glyph unicode="U" horiz-adv-x="1816" d="M153 1155v225h671v-225q-149 0 -174 -5l-5 -578v-8q0 -331 256 -331q269 0 269 339v583h-180v225h672v-225q-149 0 -174 -5l-5 -566q-2 -276 -143 -434q-154 -173 -446 -173q-286 0 -431 173q-131 156 -131 427v578h-179z" />
<glyph unicode="V" horiz-adv-x="1512" d="M8 1156v224h627v-224q-73 0 -118 -2q83 -236 241 -710q31 124 126 373l130 338q-21 1 -114 1v224h619v-224q-167 0 -176 -4l-452 -1152h-293l-413 1153q-7 3 -177 3z" />
<glyph unicode="W" horiz-adv-x="2128" d="M30 1156v224h636v-224q-86 0 -135 -3q55 -207 160 -622q15 62 246 849h288q76 -278 220 -836q13 58 172 610q-28 2 -130 2v224h625v-224q-174 0 -178 -3l-358 -1153h-290q-76 277 -220 832q-13 -51 -247 -832h-290l-321 1155q-2 1 -178 1z" />
<glyph unicode="X" horiz-adv-x="1450" d="M51 0v224q129 0 173 7l310 468l-296 453q-36 6 -172 6v224h592v-224q-39 0 -68 -1l137 -222q16 36 133 222q-28 1 -65 1v224h587v-224q-128 0 -170 -6l-306 -445l320 -478q21 -5 173 -5v-224h-595v224l65 1q-14 23 -156 244q-19 -36 -144 -245q67 -56 72 -224h-590z" />
<glyph unicode="Y" horiz-adv-x="1396" d="M26 1156v224h598v-224q-47 0 -80 -1q57 -102 169 -306q18 46 168 307h-77v224h590v-224q-150 0 -171 -5l-366 -571v-356h179v-224h-671v224q149 0 174 6l5 349l-346 572q-21 5 -172 5z" />
<glyph unicode="Z" horiz-adv-x="1265" d="M61 0v175l706 947h-395v-163h-246v421h1065v-179l-701 -943h465q1 4 1 163h246v-421h-1141z" />
<glyph unicode="[" horiz-adv-x="643" d="M139 -229v1634h420v-172h-195v-1290h195v-172h-420z" />
<glyph unicode="\" horiz-adv-x="700" d="M24 1403h207l436 -1485h-207z" />
<glyph unicode="]" horiz-adv-x="643" d="M86 -57h195v1290h-195v172h418v-1634h-418v172z" />
<glyph unicode="^" horiz-adv-x="1220" d="M86 362l430 969h188l431 -969h-224l-299 730h-6l-301 -730h-219z" />
<glyph unicode="_" horiz-adv-x="1024" d="M0 -154h1024v-102h-1024v102z" />
<glyph unicode="`" horiz-adv-x="614" d="M8 1434h287l176 -312h-211z" />
<glyph unicode="a" horiz-adv-x="1209" d="M71 289q0 217 231 316h-160v304q181 104 394 104q443 0 443 -419v-327q0 -30 1 -54q3 -9 42 -5q75 7 136 7v-218h-453l-7 49q-91 -69 -258 -69q-158 0 -262 86q-107 88 -107 226zM385 307q0 -93 102 -93q68 0 123 38q60 41 60 100v93q-285 -7 -285 -138zM387 634 q122 35 276 40q-16 103 -155 103q-61 0 -118 -15q-4 -4 -4 -68q0 -25 1 -60z" />
<glyph unicode="b" horiz-adv-x="1264" d="M0 1228v226h492v-482q81 78 244 78q215 0 340 -163q110 -144 110 -347q0 -241 -147 -397q-156 -165 -416 -165q-444 0 -444 436v814h-179zM492 507v-41q0 -117 10 -157q19 -85 124 -85q126 0 194 108q57 90 57 213q0 133 -70 207q-45 46 -109 46q-102 0 -159 -105 q-46 -83 -47 -186z" />
<glyph unicode="c" horiz-adv-x="1057" d="M77 487q0 233 167.5 380t431.5 147q168 0 317 -71v-337h-246q0 43 3.5 88t3.5 49q0 16 -6 21q-35 4 -72 4q-135 0 -211 -78q-72 -74 -72 -195q0 -118 72 -191q75 -77 206 -77q96 0 269 65l59 -235q-179 -78 -361 -78q-254 0 -407.5 141.5t-153.5 366.5z" />
<glyph unicode="d" horiz-adv-x="1305" d="M77 497q0 235 150 390q156 163 410 163q61 0 115 -10l1 191q-4 8 -43 4q-75 -7 -135 -7v226h492v-1230h180v-226h-463l-2 66q-92 -87 -257 -87q-212 0 -338 169q-110 149 -110 351zM385 493q0 -102 34 -172q47 -93 145 -93q195 0 195 385q0 45 -3 105t-3 69 q-44 15 -104 15q-128 0 -201 -100q-63 -87 -63 -209z" />
<glyph unicode="e" horiz-adv-x="1160" d="M77 481q0 223 136 372q148 161 396 161q225 0 356 -141q120 -131 120 -332q0 -54 -23 -134h-672q37 -186 266 -186q139 0 321 68l62 -229q-200 -83 -408 -83q-255 0 -404.5 139t-149.5 365zM402 640h370q-10 41 -34 76q-45 65 -143 65q-137 0 -193 -141z" />
<glyph unicode="f" horiz-adv-x="780" d="M28 0v226q148 0 175 5q0 -2 4 -5v557h-138v247h138q4 196 105 315q113 131 318 131q103 0 229 -51l-47 -250q-118 45 -168 45q-122 0 -125 -190h239v-247h-238v-557h179v-226h-671z" />
<glyph unicode="g" horiz-adv-x="1203" d="M77 463q0 242 157 396q161 157 424 157q186 0 399 -83l4 -789v-5q0 -268 -99 -401q-121 -162 -408 -162q-214 0 -386 94l47 250q183 -96 324 -96q196 0 220 211q-88 -67 -234 -67q-210 0 -336 157q-112 141 -112 338zM387 463q0 -249 177 -249q90 0 146 106q45 86 45 177 v260q-46 13 -103 13q-129 0 -202 -98q-63 -85 -63 -209z" />
<glyph unicode="h" horiz-adv-x="1443" d="M51 0v225q149 0 174 6l5 997q-4 1 -179 1v225h492v-477q115 73 251 73q199 0 311 -136q101 -122 101 -312v-377h179v-225h-492v583q0 208 -162 208q-80 0 -134 -54t-54 -127v-385h179v-225h-671z" />
<glyph unicode="i" horiz-adv-x="773" d="M51 0v217q149 0 174 5l5 551h-179v217h492v-773h179v-217h-671zM204 1289q0 78 52.5 130.5t130.5 52.5t130 -52.5t52 -130.5q0 -76 -51 -129.5t-132 -53.5q-78 0 -130 52.5t-52 130.5z" />
<glyph unicode="j" horiz-adv-x="642" d="M-92 -184q182 11 223 53q52 54 52 299v598h-179v225h492v-886q0 -535 -552 -537zM157 1290q0 78 53 130.5t131 52.5t129.5 -52.5t51.5 -130.5q0 -79 -52 -131t-131 -52t-130.5 52t-51.5 131z" />
<glyph unicode="k" horiz-adv-x="1221" d="M51 0v225q149 0 174 6l5 997q-4 1 -179 1v225h492v-730l74 80h-5v225h544v-225q-124 0 -162 -4l-35 -34l-179 -175l294 -361q34 -5 167 -5v-225h-366l-153 195v-195h-671zM543 225h155l-136 174l-19 -20v-154z" />
<glyph unicode="l" horiz-adv-x="780" d="M51 0v225q149 0 174 6l5 997q-4 1 -179 1v225h492v-1229h179v-225h-671z" />
<glyph unicode="m" horiz-adv-x="2009" d="M51 0v217q149 0 174 6l5 475q0 27 -1 79q-4 8 -43 5q-76 -7 -135 -7v218h458l4 -58q93 78 259 78q184 0 291 -128q50 60 145 95q87 33 177 33q196 0 302 -137q92 -120 92 -302v-357h179v-217h-489v554q0 210 -147 210q-72 0 -117 -49.5t-45 -113.5v-384h179v-217h-489 v584q0 180 -139 180q-73 0 -124 -58q-47 -53 -47 -120v-369h179v-217h-668z" />
<glyph unicode="n" horiz-adv-x="1436" d="M51 0v217q149 0 174 6q1 -2 5 -5v480q0 41 -1 79q-4 8 -43 5q-76 -7 -135 -7v218h460l4 -61q119 81 276 81q200 0 313 -130q102 -118 102 -302v-364h179v-217h-492v563q0 201 -162 201q-78 0 -133 -54t-55 -124v-369h179v-217h-671z" />
<glyph unicode="o" horiz-adv-x="1258" d="M77 488q0 227 149 374q155 152 410 152q249 0 399 -147q145 -142 145 -364q0 -251 -179 -398q-157 -128 -380 -128q-248 0 -399 148q-145 142 -145 363zM391 494q0 -106 54 -185q64 -93 178 -93q117 0 182 94q54 78 54 188q0 114 -56 193q-62 85 -174 85q-119 0 -183 -93 q-55 -78 -55 -189z" />
<glyph unicode="p" horiz-adv-x="1312" d="M51 -178q149 0 174 5l5 786q0 72 -2 160q-2 2 -5 3q-7 3 -49 -1q-63 -5 -123 -5v225h463l3 -66q93 87 260 87q218 0 345 -167q112 -147 112 -353q0 -226 -137 -381q-149 -168 -391 -168q-98 0 -177 21q16 -49 16 -149q3 -5 11 -6q6 0 53 4q55 5 113 5v-225h-671v225z M543 434l4 -218q56 -24 134 -24q117 0 185 112q56 93 56 208q0 49 -10 93q-35 160 -169 160q-105 0 -160 -127q-40 -92 -40 -194v-10z" />
<glyph unicode="q" horiz-adv-x="1298" d="M77 457q0 239 156 395q162 161 422 161q202 0 412 -80v-1113q4 -1 180 -1v-225h-672v225q147 0 173 6l3 174q-85 -55 -228 -55q-209 0 -335 167q-111 148 -111 346zM385 457q0 -89 35 -164q45 -99 128 -99q102 0 160 104q47 84 46 185l-3 271q-43 12 -104 12 q-126 0 -199 -101q-63 -87 -63 -208z" />
<glyph unicode="r" horiz-adv-x="883" d="M51 0v217q149 0 174 6l5 438q0 37 -1 116q-2 3 -5 4q-8 3 -50 -1q-64 -5 -123 -5v218h461l2 -56q98 76 222 76q36 0 117 -16v-273q-100 21 -128 21q-92 0 -141 -72q-41 -60 -41 -147v-309h179v-217h-671z" />
<glyph unicode="s" horiz-adv-x="945" d="M79 64v323h246q0 -153 2 -157l15 -3q43 -11 86 -11q126 0 126 71q0 52 -116 99q-172 70 -216 100q-115 79 -115 211q0 145 125 234q116 82 284 82q162 0 310 -80v-321h-246q0 159 3 151q-2 4 -4 6q-34 7 -68 7q-97 0 -97 -60q0 -40 116 -86q159 -62 216 -104 q116 -86 116 -224q0 -146 -121 -235t-317 -89q-178 0 -345 86z" />
<glyph unicode="t" horiz-adv-x="811" d="M36 769v245h154v149l310 88v-237h258v-245h-258v-423q0 -112 68 -112q52 0 165 28l18 -239q-120 -46 -230 -46q-331 0 -331 364v428h-154z" />
<glyph unicode="u" horiz-adv-x="1429" d="M51 773v217h492v-542q0 -221 155 -221q78 0 132.5 50t54.5 119v377h-179v217h492v-694q0 -44 2 -84q3 -8 42 -4q76 7 136 7v-218h-460l-4 61q-97 -81 -276 -81q-206 0 -314 134q-94 118 -94 308v354h-179z" />
<glyph unicode="v" horiz-adv-x="1339" d="M26 773v217h610v-217q-69 0 -112 -1l148 -375q11 30 148 376h-112v217h610v-217q-165 0 -176 -3l-344 -770h-253l-343 770q-11 3 -176 3z" />
<glyph unicode="w" horiz-adv-x="1886" d="M36 773v217h622v-217q-82 0 -129 -2l98 -327q8 24 197 546h250q65 -180 191 -541q7 24 103 323q-26 1 -125 1v217h612v-217q-170 0 -177 -3l-282 -770h-261q-66 178 -193 534q-10 -33 -202 -534h-263l-264 771q-4 2 -177 2z" />
<glyph unicode="x" horiz-adv-x="1194" d="M16 0v217q127 0 169 5l223 283l-208 263q-34 5 -168 5v217h1123v-217q-127 0 -168 -5l-209 -259l222 -287q34 -5 169 -5v-217h-575v217h48q-25 34 -57 79q-14 -25 -54 -79h52v-217h-567zM555 773q21 -28 45 -62q11 22 41 62h-86z" />
<glyph unicode="y" horiz-adv-x="1315" d="M18 766v225h617v-225q-66 0 -108 -1l143 -356l4 9l128 347q-22 1 -116 1v225h615v-225q-165 0 -175 -4q-89 -215 -177 -429q-125 -296 -210 -441q-91 -156 -196 -235q-118 -88 -297 -116l-81 247q129 37 198 87q80 57 132 162q8 16 8 14q0 4 -7 21l-302 690q-12 4 -176 4 z" />
<glyph unicode="z" horiz-adv-x="1009" d="M36 0v172q169 200 516 587q-82 -13 -230 -14v-158h-246v403h891l-2 -178q-168 -197 -511 -583q92 15 273 16q1 3 1 158h246v-403h-938z" />
<glyph unicode="{" horiz-adv-x="643" d="M61 510v158q156 4 156 139q0 54 -11.5 160.5t-11.5 160.5q0 277 311 277h72v-174h-37q-125 0 -125 -146q0 -44 10.5 -129t10.5 -127q2 -200 -174 -237v-4q176 -37 174 -240q0 -42 -10.5 -128t-10.5 -130q0 -147 125 -147h37v-172h-74q-309 0 -309 278q0 54 11.5 161 t11.5 161q0 133 -156 139z" />
<glyph unicode="|" horiz-adv-x="579" d="M180 -512v2048h217v-2048h-217z" />
<glyph unicode="}" horiz-adv-x="643" d="M65 -57h37q125 0 125 147q0 45 -10 129q-10 88 -11 129q-3 203 176 240v4q-179 37 -176 237q1 41 11 128q10 84 10 128q0 146 -125 146h-37v174h72q313 0 313 -277q0 -54 -12.5 -160.5t-12.5 -160.5q0 -135 156 -139v-158q-156 -6 -156 -139q0 -54 12.5 -161t12.5 -161 q0 -278 -311 -278h-74v172z" />
<glyph unicode="~" horiz-adv-x="1220" d="M87 393q-4 383 285 383q108 0 286 -98q146 -80 195 -80q78 0 84 166h195q16 -387 -273 -387q-116 0 -287 98q-150 86 -194 86q-86 0 -96 -168h-195z" />
<glyph unicode="&#xa1;" horiz-adv-x="548" d="M92 825q0 82 50 134.5t132 52.5h2q82 0 132 -52t49 -135q-1 -84 -50.5 -135t-132.5 -51q-82 0 -132 52t-50 134zM112 -391l46 926h235l45 -926h-326z" />
<glyph unicode="&#xa2;" horiz-adv-x="1136" d="M153 670q0 197 112.5 335.5t305.5 176.5v196h203v-186q104 -4 194 -41l-49 -229q-74 36 -182 36q-124 0 -194.5 -75.5t-70.5 -200.5q0 -126 71 -200t196 -74q108 0 202 34l37 -223q-84 -39 -207 -47v-197h-200v201q-198 30 -308 161t-110 333z" />
<glyph unicode="&#xa3;" horiz-adv-x="1136" d="M104 0v166q96 41 159 118q70 86 70 183q0 51 -6 82h-200v211h163q-16 92 -16 166q0 199 134 316q127 112 329 112q151 0 241 -49l-51 -236q-67 37 -172 37q-190 0 -190 -193q0 -65 18 -153h281v-211h-254q4 -178 -119 -291v-4h547v-254h-934z" />
<glyph unicode="&#xa4;" horiz-adv-x="1136" d="M36 1083l137 144l158 -176q94 75 235 75h2q142 0 238 -71l158 170l135 -140l-178 -159q65 -111 65 -238q0 -147 -69 -248l172 -166l-133 -135l-152 178q-94 -79 -240 -79q-147 0 -237 77l-148 -176l-133 135l170 162q-74 105 -74 246q0 133 72 244zM378 684 q0 -94 46 -162q52 -78 142 -78t144 79q47 69 47 163q0 93 -48 159q-54 73 -143 73h-2q-89 0 -141 -75q-45 -66 -45 -159z" />
<glyph unicode="&#xa5;" horiz-adv-x="1136" d="M4 1331h334l143 -327q31 -71 86 -224h4q20 60 88 226l146 325h327l-350 -581h244v-146h-322v-131h322v-145h-322v-328h-292v328h-318v145h318v131h-318v146h244z" />
<glyph unicode="&#xa6;" horiz-adv-x="579" d="M180 358h217v-716h-217v716zM180 666v716h217v-716h-217z" />
<glyph unicode="&#xa7;" horiz-adv-x="1148" d="M92 645q0 165 170 250q-82 66 -82 186q0 164 149 249q121 69 298 69q188 0 323 -62l-49 -188q-119 57 -268 57q-185 0 -185 -98q0 -78 219 -143q193 -58 279 -125q111 -87 111 -234q0 -153 -150 -250q90 -69 90 -188q0 -171 -153 -258q-123 -70 -299 -70q-240 0 -383 90 l59 189q143 -86 309 -86q187 0 187 106q0 86 -217 154q-199 62 -285 125q-123 90 -123 227zM334 700q0 -96 178 -157q98 -33 242 -88q59 37 59 106q0 96 -141 148q-103 38 -265 100q-73 -39 -73 -107v-2z" />
<glyph unicode="&#xa8;" horiz-adv-x="614" d="M-40 1257q0 61 40 101.5t101 40.5t98 -40.5t37 -101.5q0 -59 -38.5 -99t-96.5 -40h-2q-58 0 -98.5 40.5t-40.5 98.5zM378 1257q0 62 39.5 102t101.5 40q60 0 97.5 -40.5t37.5 -101.5q0 -58 -39.5 -98.5t-97.5 -40.5h-2q-57 0 -97 41t-40 98z" />
<glyph unicode="&#xa9;" horiz-adv-x="1386" d="M65 696q0 266 182.5 448.5t448.5 182.5h2q264 0 443 -183.5t179 -447.5q0 -267 -179 -451t-445 -184q-268 0 -449.5 183.5t-181.5 451.5zM200 694q0 -214 140 -363q143 -152 356 -153t355 152q138 150 138 364q0 213 -139 363q-143 153 -354 153h-2q-212 0 -353 -151.5 t-141 -364.5zM346 684q0 167 116 275q112 106 281 106q175 0 227 -57l-31 -111q-79 47 -196 47q-119 0 -185.5 -67.5t-66.5 -186.5q0 -113 70 -184.5t182 -71.5q127 0 205 51l30 -106q-98 -66 -254 -66q-169 0 -273.5 101t-104.5 270z" />
<glyph unicode="&#xaa;" horiz-adv-x="774" d="M67 735q0 134 144 194q105 44 259 44v14q0 78 -124 78q-107 0 -189 -51l-41 131q113 65 270 65q302 0 302 -286v-219q0 -103 10 -160h-193l-14 67h-4q-80 -77 -203 -77q-93 0 -153 53q-64 56 -64 147zM276 752q0 -78 90 -78q74 0 102 61q11 24 11 45v72q-203 2 -203 -100 z" />
<glyph unicode="&#xab;" horiz-adv-x="952" d="M53 516l238 391h217l-244 -391l244 -391h-217zM450 516l238 391h217l-244 -391l244 -391h-217z" />
<glyph unicode="&#xac;" horiz-adv-x="1220" d="M81 674v190h1057v-647h-199v457h-858z" />
<glyph unicode="&#xad;" horiz-adv-x="659" d="M61 434v207h537v-207h-537z" />
<glyph unicode="&#xae;" horiz-adv-x="1044" d="M63 942q0 193 134 326t327 133h2q193 0 324 -133t131 -326q0 -194 -131.5 -328.5t-325.5 -134.5t-327.5 134.5t-133.5 328.5zM172 940q0 -152 99 -259q102 -110 253 -110q152 0 252 108t100 261t-100 261t-252 108h-2q-151 0 -252 -110q-98 -106 -98 -259zM335 674v512 q93 14 164 14q221 0 221 -151q0 -95 -98 -119v-4q71 -15 84 -125q11 -92 27 -127h-113q-16 24 -23 85q-8 65 -20 87q-21 39 -86 39h-47v-211h-109zM444 969h49q115 0 115 73q0 74 -105 74q-43 0 -59 -2v-145z" />
<glyph unicode="&#xaf;" horiz-adv-x="614" d="M51 1192v160h514v-160h-514z" />
<glyph unicode="&#xb0;" horiz-adv-x="729" d="M55 1100q-1 131 89 217t222 86h2q131 0 220.5 -83.5t89.5 -213.5q0 -131 -91 -217t-223 -86q-131 0 -219.5 83.5t-89.5 213.5zM221 1100q0 -65 41 -110.5t106 -45.5q66 0 107 47q39 44 39 111q0 68 -39.5 114t-106.5 46h-2q-64 0 -106 -50q-39 -46 -39 -112z" />
<glyph unicode="&#xb1;" horiz-adv-x="1220" d="M81 0v190h1057v-190h-1057zM81 641v190h428v355h201v-355h428v-190h-428v-360h-201v360h-428z" />
<glyph unicode="&#xb2;" horiz-adv-x="770" d="M69 545v114l127 115q148 134 176 166q62 71 62 129q0 98 -119 98q-96 0 -176 -57l-64 156q123 88 299 88q130 0 214 -58q97 -66 97 -190q0 -96 -71 -186q-54 -68 -162 -154l-49 -39v-4h297v-178h-631z" />
<glyph unicode="&#xb3;" horiz-adv-x="763" d="M59 592l47 160q96 -54 201 -54q53 0 94 20q51 25 51 73q0 102 -176 102h-61v139h57q158 0 158 86q0 72 -109 72q-96 0 -184 -49l-45 147q110 66 286 66q116 0 195 -43q100 -54 100 -160q0 -131 -168 -180v-4q84 -11 138 -57q61 -52 61 -132q0 -127 -128 -192 q-101 -51 -241 -51q-176 0 -276 57z" />
<glyph unicode="&#xb4;" horiz-adv-x="614" d="M153 1122l176 312h287l-250 -312h-213z" />
<glyph unicode="&#xb5;" horiz-adv-x="1193" d="M120 -406v1407h313v-534q0 -234 158 -234q62 0 107.5 42t56.5 104v622h313v-679q0 -164 8 -322h-270l-14 145h-6q-91 -161 -254 -161q-103 0 -150 63h-6l23 -453h-279z" />
<glyph unicode="&#xb6;" horiz-adv-x="1110" d="M63 924q-4 248 185 366q156 99 421 99q199 0 293 -23v-1462h-199v1292h-145v-1292h-197v637h-14q-108 0 -213 92q-128 113 -131 291z" />
<glyph unicode="&#xb7;" horiz-adv-x="532" d="M102 166q0 84 50 137t134 53t133.5 -53t49.5 -137t-50.5 -136.5t-134.5 -52.5h-2q-81 0 -130.5 54t-49.5 135z" />
<glyph unicode="&#xb8;" horiz-adv-x="614" d="M94 -377l41 117q57 -35 113 -35q72 0 71 53q-1 64 -157 74l86 176h168l-56 -98q62 -8 103 -46q45 -41 45 -102q0 -180 -248 -180q-100 0 -166 41z" />
<glyph unicode="&#xb9;" horiz-adv-x="751" d="M108 1245l229 98h207v-798h-239v604h-2l-164 -72z" />
<glyph unicode="&#xba;" horiz-adv-x="790" d="M47 866q0 154 97.5 249t252.5 95h2q152 0 246 -89.5t94 -241.5q0 -155 -96 -249.5t-252 -94.5q-149 0 -245 91q-99 92 -99 240zM270 868q0 -68 29 -120q35 -62 98 -62q66 0 99 65q26 50 26 123q0 65 -31 120q-36 65 -96 65h-2q-63 0 -96 -68q-27 -55 -27 -123z" />
<glyph unicode="&#xbb;" horiz-adv-x="952" d="M47 125l244 391l-244 391h213l240 -391l-240 -391h-213zM438 125l246 391l-246 391h215l240 -391l-240 -391h-215z" />
<glyph unicode="&#xbc;" horiz-adv-x="1701" d="M71 1245l229 98h209v-798h-239v604h-2l-164 -72zM354 -23l755 1377h168l-753 -1377h-170zM898 184v129l349 494h274v-471h109v-152h-109v-184h-221v184h-402zM1113 340l7 -4h180v151q0 5 8 152h-6q-25 -47 -74 -133z" />
<glyph unicode="&#xbd;" horiz-adv-x="1701" d="M47 1245l229 98h209v-798h-239v604h-4l-162 -72zM305 -23l756 1377h168l-754 -1377h-170zM993 0v115l125 114q82 74 178 166q62 71 62 129q0 99 -121 99q-94 0 -176 -58l-64 156q123 88 299 88q131 0 215 -57q97 -65 97 -191q0 -98 -70 -186q-51 -64 -164 -154l-49 -39 v-4h299v-178h-631z" />
<glyph unicode="&#xbe;" horiz-adv-x="1701" d="M55 592l45 160q98 -54 201 -54q54 0 95 20q52 25 52 73q0 55 -66 82q-49 20 -112 20h-61v139h57q158 0 158 86q0 72 -107 72q-96 0 -186 -49l-45 147q110 66 286 66q117 0 197 -42q100 -54 100 -161q0 -131 -168 -180v-4q84 -11 138 -57q61 -52 61 -132q0 -127 -129 -192 q-102 -51 -242 -51q-176 0 -274 57zM420 -23l753 1377h170l-753 -1377h-170zM919 184v129l348 494h273v-471h108v-152h-108v-184h-221v184h-400zM1134 340l4 -4h181v151q0 5 8 152h-4q-25 -47 -74 -133z" />
<glyph unicode="&#xbf;" horiz-adv-x="911" d="M88 -94q0 100 59 198q29 47 117 146q112 125 105 256l-2 37h272l2 -54q4 -119 -58 -229q-18 -32 -118 -164q-64 -85 -64 -141q0 -122 150 -123q111 -1 205 62l67 -224q-143 -84 -342 -84q-167 0 -273 75q-120 85 -120 245zM324 825q0 82 51 134.5t133 52.5h2 q82 0 131 -52.5t49 -134.5q0 -83 -49.5 -134.5t-132.5 -51.5q-82 0 -133 52t-51 134z" />
<glyph unicode="&#xc0;" horiz-adv-x="1343" d="M34 0l422 1380h409l429 -1380h-336l-107 354h-395l-98 -354h-324zM300 1712h324l178 -254h-244zM501 588h305l-86 293q-3 12 -70 266h-4q-14 -70 -63 -266z" />
<glyph unicode="&#xc1;" horiz-adv-x="1343" d="M34 0l422 1380h409l429 -1380h-336l-107 354h-395l-98 -354h-324zM501 588h305l-86 293q-3 12 -70 266h-4q-14 -70 -63 -266zM536 1454l178 258h324l-256 -258h-246z" />
<glyph unicode="&#xc2;" horiz-adv-x="1343" d="M34 0l422 1380h409l429 -1380h-336l-107 354h-395l-98 -354h-324zM360 1454l206 258h222l211 -258h-217l-103 135h-4l-100 -135h-215zM501 588h305l-86 293q-3 12 -70 266h-4q-14 -70 -63 -266z" />
<glyph unicode="&#xc3;" horiz-adv-x="1343" d="M34 0l422 1380h409l429 -1380h-336l-107 354h-395l-98 -354h-324zM388 1464q-8 254 158 254q51 0 130 -40t91 -40q47 0 58 88h139q6 -249 -162 -249q-52 0 -132.5 37.5t-88.5 37.5q-43 0 -49 -88h-144zM501 588h305l-86 293q-3 12 -70 266h-4q-14 -70 -63 -266z" />
<glyph unicode="&#xc4;" horiz-adv-x="1343" d="M34 0l422 1380h409l429 -1380h-336l-107 354h-395l-98 -354h-324zM331 1597q0 60 39.5 100t99.5 40t96.5 -40t36.5 -100q0 -58 -38 -97.5t-95 -39.5h-2q-56 0 -96.5 40.5t-40.5 96.5zM501 588h305l-86 293q-3 12 -70 266h-4q-14 -70 -63 -266zM747 1597q0 60 39.5 100 t99.5 40q59 0 97 -40t38 -100q0 -57 -39 -97t-96 -40h-2q-56 0 -96.5 40.5t-40.5 96.5z" />
<glyph unicode="&#xc5;" horiz-adv-x="1343" d="M43 0l422 1389q-60 43 -60 137q0 105 85 164q75 53 184 53q115 0 186 -49q82 -56 82 -166q0 -101 -72 -144l430 -1384h-335l-107 354h-397l-96 -354h-322zM504 588h307l-88 303q-15 51 -68 256h-4q-12 -67 -59 -252zM569 1530q0 -46 28.5 -76.5t74.5 -30.5q106 0 106 109 q0 106 -106 106h-2q-101 0 -101 -108z" />
<glyph unicode="&#xc6;" horiz-adv-x="1777" d="M4 0l590 1380h1050v-256h-567l37 -293h522v-253h-481l41 -322h524v-256h-792l-50 377h-401l-151 -377h-322zM569 627h275l-66 534h-6q-16 -54 -70 -203z" />
<glyph unicode="&#xc7;" horiz-adv-x="1222" d="M71 670q0 335 211 535q206 196 543 196q227 0 340 -60l-64 -247q-119 51 -262 51q-209 0 -324.5 -123.5t-115.5 -333.5t116 -330t326 -120q154 0 260 45l51 -244q-118 -59 -352 -59l-39 -70q63 -8 105.5 -48t42.5 -102q0 -176 -248 -176q-101 0 -166 39l41 117 q59 -35 113 -35q71 0 71 53q0 62 -157 74l79 158q-272 42 -423 224q-148 179 -148 456z" />
<glyph unicode="&#xc8;" horiz-adv-x="1093" d="M135 0v1380h852v-256h-539v-286h508v-254h-508v-328h568v-256h-881zM227 1712h324l178 -254h-246z" />
<glyph unicode="&#xc9;" horiz-adv-x="1093" d="M135 0v1380h852v-256h-539v-286h508v-254h-508v-328h568v-256h-881zM424 1454l178 258h324l-256 -258h-246z" />
<glyph unicode="&#xca;" horiz-adv-x="1093" d="M135 0v1380h852v-256h-539v-286h508v-254h-508v-328h568v-256h-881zM254 1454l207 258h221l211 -258h-217l-103 135h-4l-102 -135h-213z" />
<glyph unicode="&#xcb;" horiz-adv-x="1093" d="M135 0v1380h852v-256h-539v-286h508v-254h-508v-328h568v-256h-881zM213 1597q0 60 40.5 100t100.5 40q59 0 96 -40t37 -100q0 -56 -38.5 -96.5t-94.5 -40.5h-2q-56 0 -97.5 40.5t-41.5 96.5zM631 1597q0 60 39.5 100t99.5 40q59 0 97 -40t38 -100q0 -58 -39.5 -97.5 t-97.5 -39.5h-2q-57 0 -96 40t-39 97z" />
<glyph unicode="&#xcc;" horiz-adv-x="583" d="M-61 1712h324l178 -254h-246zM136 0v1380h313v-1380h-313z" />
<glyph unicode="&#xcd;" horiz-adv-x="583" d="M135 0v1380h313v-1380h-313zM145 1454l180 258h324l-258 -258h-246z" />
<glyph unicode="&#xce;" horiz-adv-x="583" d="M-26 1454l209 258h221l209 -258h-215l-102 135h-5l-102 -135h-215zM136 0v1380h313v-1380h-313z" />
<glyph unicode="&#xcf;" horiz-adv-x="583" d="M-53 1597q0 60 40.5 100t100.5 40q59 0 96 -40.5t37 -99.5q0 -57 -39 -97t-96 -40h-2q-56 0 -96.5 40.5t-40.5 96.5zM135 0v1380h314v-1380h-314zM365 1597q0 60 38.5 100t98.5 40t97.5 -40t37.5 -100q0 -57 -39 -97t-96 -40h-2q-56 0 -95.5 40.5t-39.5 96.5z" />
<glyph unicode="&#xd0;" horiz-adv-x="1441" d="M6 582v243h145v541q185 29 422 29q797 0 797 -670q0 -745 -864 -745q-207 0 -355 20v582h-145zM463 229q28 -4 108 -4q469 0 469 490q0 440 -436 440q-84 0 -141 -12v-318h274v-243h-274v-353z" />
<glyph unicode="&#xd1;" horiz-adv-x="1413" d="M135 0v1380h365l286 -506q121 -214 226 -473h6q-27 252 -27 576v403h287v-1380h-328l-295 532q-145 262 -239 488l-7 -2q13 -258 13 -602v-416h-287zM420 1464q-9 254 157 254q52 0 130.5 -40t91.5 -40q47 0 57 88h139q6 -249 -162 -249q-51 0 -131 37.5t-90 37.5 q-43 0 -49 -88h-143z" />
<glyph unicode="&#xd2;" horiz-adv-x="1468" d="M71 680q0 313 177 514q186 209 495 209q300 0 481 -201q174 -194 174 -497q0 -325 -173 -521q-182 -207 -503 -207h-2q-299 0 -478 205q-171 195 -171 498zM376 1712h324l178 -254h-246zM399 688q0 -181 75 -309q90 -154 259 -154h2q170 0 259 157q72 127 72 312 q0 179 -75 307q-90 154 -258 154q-170 0 -260 -156q-74 -128 -74 -311z" />
<glyph unicode="&#xd3;" horiz-adv-x="1468" d="M71 680q0 313 177 514q186 209 495 209q300 0 481 -201q174 -194 174 -497q0 -325 -173 -521q-182 -207 -503 -207h-2q-299 0 -478 205q-171 195 -171 498zM399 688q0 -181 75 -309q90 -154 259 -154h2q170 0 259 157q72 127 72 312q0 179 -75 307q-90 154 -258 154 q-170 0 -260 -156q-74 -128 -74 -311zM603 1454l179 258h323l-256 -258h-246z" />
<glyph unicode="&#xd4;" horiz-adv-x="1468" d="M71 680q0 313 177 514q186 209 495 209q300 0 481 -201q174 -194 174 -497q0 -325 -173 -521q-182 -207 -503 -207h-2q-299 0 -478 205q-171 195 -171 498zM399 688q0 -181 75 -309q90 -154 259 -154h2q170 0 259 157q72 127 72 312q0 179 -75 307q-90 154 -258 154 q-170 0 -260 -156q-74 -128 -74 -311zM415 1454l209 258h221l209 -258h-217l-100 135h-4l-103 -135h-215z" />
<glyph unicode="&#xd5;" horiz-adv-x="1468" d="M71 680q0 313 177 514q186 209 495 209q300 0 481 -201q174 -194 174 -497q0 -325 -173 -521q-182 -207 -503 -207h-2q-299 0 -478 205q-171 195 -171 498zM399 688q0 -181 75 -309q90 -154 259 -154h2q170 0 259 157q72 127 72 312q0 179 -75 307q-90 154 -258 154 q-170 0 -260 -156q-74 -128 -74 -311zM448 1464q-8 254 158 254q51 0 129.5 -40t91.5 -40q47 0 55 88h139q8 -249 -162 -249q-50 0 -129 37.5t-92 37.5q-41 0 -49 -88h-141z" />
<glyph unicode="&#xd6;" horiz-adv-x="1468" d="M71 680q0 313 177 514q186 209 495 209q300 0 481 -201q174 -194 174 -497q0 -325 -173 -521q-182 -207 -503 -207h-2q-299 0 -478 205q-171 195 -171 498zM388 1597q0 60 40 100t100 40q59 0 96 -40t37 -100q0 -57 -38 -97t-95 -40h-2q-57 0 -97.5 40t-40.5 97zM399 688 q0 -181 75 -309q90 -154 259 -154h2q170 0 259 157q72 127 72 312q0 179 -75 307q-90 154 -258 154q-170 0 -260 -156q-74 -128 -74 -311zM804 1597q0 60 39.5 100t99.5 40q59 0 97.5 -40.5t38.5 -99.5q0 -58 -39 -97.5t-97 -39.5h-2q-56 0 -96.5 40.5t-40.5 96.5z" />
<glyph unicode="&#xd7;" horiz-adv-x="1220" d="M81 137l393 402l-393 401l133 137l395 -403l396 403l133 -137l-393 -401l393 -402l-135 -137l-394 401l-393 -401z" />
<glyph unicode="&#xd8;" horiz-adv-x="1468" d="M71 688q0 305 178 506q186 209 488 209q170 0 305 -72l112 166l179 -119l-117 -172q182 -194 182 -508q0 -315 -172 -513q-180 -208 -491 -208q-162 0 -295 70l-125 -182l-168 131l114 174q-190 199 -190 518zM384 690q0 -131 54 -252h2l456 672q-69 49 -159 49 q-180 0 -274 -151q-79 -127 -79 -318zM583 268q61 -47 152 -47q178 0 272 154q78 128 78 319q0 123 -45 234l-6 2z" />
<glyph unicode="&#xd9;" horiz-adv-x="1396" d="M133 610v770h313v-794q0 -359 250 -359q254 0 254 359v794h311v-774q0 -629 -575 -629q-553 0 -553 633zM352 1712h324l178 -254h-246z" />
<glyph unicode="&#xda;" horiz-adv-x="1396" d="M133 610v770h313v-794q0 -359 250 -359q254 0 254 359v794h311v-774q0 -629 -575 -629q-553 0 -553 633zM563 1454l178 258h324l-258 -258h-244z" />
<glyph unicode="&#xdb;" horiz-adv-x="1396" d="M133 610v770h313v-794q0 -359 250 -359q254 0 254 359v794h311v-774q0 -629 -575 -629q-553 0 -553 633zM401 1454l207 258h221l211 -258h-217l-102 135h-4l-101 -135h-215z" />
<glyph unicode="&#xdc;" horiz-adv-x="1396" d="M133 610v770h313v-794q0 -359 250 -359q254 0 254 359v794h311v-774q0 -629 -575 -629q-553 0 -553 633zM364 1597q0 60 40 100t100 40q59 0 96 -40t37 -100q0 -57 -38 -97t-95 -40h-2q-57 0 -97.5 40t-40.5 97zM780 1597q0 60 39.5 100t99.5 40q59 0 97.5 -40.5 t38.5 -99.5q0 -58 -39 -97.5t-97 -39.5h-2q-56 0 -96.5 40.5t-40.5 96.5z" />
<glyph unicode="&#xdd;" horiz-adv-x="1234" d="M18 1380h356l142 -331q38 -88 106 -265h4q41 112 105 265l139 331h350l-454 -805v-575h-312v565zM503 1454l179 258h323l-256 -258h-246z" />
<glyph unicode="&#xde;" horiz-adv-x="1187" d="M135 0v1380h309v-247q70 6 168 6q220 0 355 -91q157 -107 157 -317q0 -237 -156 -359q-140 -110 -384 -110q-70 0 -140 8v-270h-309zM444 514q47 -10 127 -10q246 0 246 203q0 196 -238 196q-92 0 -135 -10v-379z" />
<glyph unicode="&#xdf;" horiz-adv-x="1228" d="M124 0v883q0 275 123 427q135 167 403 167q184 0 306 -96q135 -104 135 -283q0 -105 -49 -168q-117 -58 -117 -142q0 -63 69 -137q82 -88 107 -129q55 -90 55 -192q0 -173 -122 -268q-111 -85 -289 -85q-140 0 -220 33l39 230q60 -29 142 -29q137 0 137 106q0 55 -70 136 l-108 125q-54 82 -54 170q0 167 166 253q15 35 15 72q0 73 -43.5 119.5t-116.5 46.5q-197 0 -197 -330v-909h-311z" />
<glyph unicode="&#xe0;" d="M59 285q0 214 200 311q149 72 388 72v14q0 129 -182 129q-152 0 -277 -76l-57 201q157 88 389 88q440 0 440 -432v-348q0 -162 14 -244h-280l-19 100h-6q-100 -123 -286 -123q-136 0 -230 86.5t-94 221.5zM204 1434h287l176 -312h-211zM366 315q0 -118 123 -118 q56 0 101.5 31t60.5 83q6 21 6 54v108q-291 2 -291 -158z" />
<glyph unicode="&#xe1;" d="M59 285q0 214 200 311q149 72 388 72v14q0 129 -182 129q-152 0 -277 -76l-57 201q157 88 389 88q440 0 440 -432v-348q0 -162 14 -244h-280l-19 100h-6q-100 -123 -286 -123q-136 0 -230 86.5t-94 221.5zM366 315q0 -118 123 -118q56 0 101.5 31t60.5 83q6 21 6 54v108 q-291 2 -291 -158zM399 1122l176 312h287l-250 -312h-213z" />
<glyph unicode="&#xe2;" d="M59 285q0 214 200 311q149 72 388 72v14q0 129 -182 129q-152 0 -277 -76l-57 201q157 88 389 88q440 0 440 -432v-348q0 -162 14 -244h-280l-19 100h-6q-100 -123 -286 -123q-136 0 -230 86.5t-94 221.5zM233 1122l201 312h196l203 -312h-196l-103 176h-4l-102 -176 h-195zM366 315q0 -118 123 -118q56 0 101.5 31t60.5 83q6 21 6 54v108q-291 2 -291 -158z" />
<glyph unicode="&#xe3;" d="M59 285q0 214 200 311q149 72 388 72v14q0 129 -182 129q-152 0 -277 -76l-57 201q157 88 389 88q440 0 440 -432v-348q0 -162 14 -244h-280l-19 100h-6q-100 -123 -286 -123q-136 0 -230 86.5t-94 221.5zM237 1139q-4 256 158 256q57 0 135 -43q70 -39 88 -39 q47 0 55 90h136q4 -250 -160 -250q-64 0 -144 45q-59 33 -79 33q-43 0 -50 -92h-139zM366 315q0 -118 123 -118q56 0 101.5 31t60.5 83q6 21 6 54v108q-291 2 -291 -158z" />
<glyph unicode="&#xe4;" d="M59 285q0 214 200 311q149 72 388 72v14q0 129 -182 129q-152 0 -277 -76l-57 201q157 88 389 88q440 0 440 -432v-348q0 -162 14 -244h-280l-19 100h-6q-100 -123 -286 -123q-136 0 -230 86.5t-94 221.5zM192 1257q0 61 40 101.5t101 40.5t98.5 -40.5t37.5 -101.5 q0 -58 -39 -98.5t-97 -40.5h-2q-58 0 -98.5 40.5t-40.5 98.5zM366 315q0 -118 123 -118q56 0 101.5 31t60.5 83q6 21 6 54v108q-291 2 -291 -158zM610 1257q0 62 39.5 102t101.5 40q61 0 98 -40.5t37 -101.5q0 -59 -39 -99t-98 -40h-2q-57 0 -97 41t-40 98z" />
<glyph unicode="&#xe5;" d="M59 285q0 214 200 311q149 72 388 72v14q0 129 -182 129q-152 0 -277 -76l-57 201q157 88 389 88q440 0 440 -432v-348q0 -162 14 -244h-280l-19 100h-6q-100 -123 -286 -123q-136 0 -230 86.5t-94 221.5zM309 1300q0 99 70 154q64 51 165 51h2q101 0 163 -51 q67 -55 67 -154q0 -94 -71 -148q-65 -50 -161 -50q-98 0 -163 49q-72 54 -72 149zM366 315q0 -118 123 -118q56 0 101.5 31t60.5 83q6 21 6 54v108q-291 2 -291 -158zM452 1300q0 -39 25.5 -67.5t64.5 -28.5q97 0 97 99q0 42 -26.5 71t-68.5 29h-2q-90 0 -90 -103z" />
<glyph unicode="&#xe6;" horiz-adv-x="1644" d="M59 291q0 205 207 299q151 69 385 69v29q0 39 -35 72q-51 49 -156 49q-143 0 -268 -76l-61 197q172 94 354 94q238 0 330 -162h6q123 162 342 162q206 0 321 -158q99 -136 99 -340q0 -8 -6 -110h-635q4 -104 88 -159q73 -48 182 -48q150 0 281 53l43 -209 q-146 -76 -369 -76q-277 0 -381 179h-8q-129 -179 -373 -179q-148 0 -244 82q-102 86 -102 232zM364 313q0 -116 129 -116q112 0 158 104q8 18 8 64v104q-295 2 -295 -156zM940 625h356q2 69 -31 123q-45 73 -139 73q-89 0 -141 -69q-43 -57 -45 -127z" />
<glyph unicode="&#xe7;" horiz-adv-x="923" d="M67 494q0 248 165 393q156 137 408 137q134 0 238 -39l-49 -233q-70 32 -174 32q-124 0 -196.5 -77.5t-72.5 -202.5q0 -127 74 -204t201 -77q98 0 178 33l43 -231q-100 -41 -250 -45l-39 -70q62 -8 103 -46q45 -41 45 -102q0 -180 -248 -180q-100 0 -164 41l41 117 q57 -35 111 -35q74 0 73 53q-1 64 -159 74l80 158q-195 34 -303 171q-105 133 -105 333z" />
<glyph unicode="&#xe8;" d="M67 489q0 211 123 363q139 172 383 172q217 0 336 -145q110 -134 110 -355q0 -75 -10 -123h-645q6 -98 99 -149q76 -41 184 -41q149 0 276 41l41 -211q-156 -64 -362 -64q-246 0 -388 132q-147 136 -147 380zM245 1434h287l176 -312h-211zM362 614h369q0 74 -35 129 q-47 74 -142 74q-82 0 -135 -62q-48 -56 -57 -141z" />
<glyph unicode="&#xe9;" d="M67 489q0 211 123 363q139 172 383 172q217 0 336 -145q110 -134 110 -355q0 -75 -10 -123h-645q6 -98 99 -149q76 -41 184 -41q149 0 276 41l41 -211q-156 -64 -362 -64q-246 0 -388 132q-147 136 -147 380zM362 614h369q0 74 -35 129q-47 74 -142 74q-82 0 -135 -62 q-48 -56 -57 -141zM440 1122l176 312h287l-250 -312h-213z" />
<glyph unicode="&#xea;" d="M67 489q0 211 123 363q139 172 383 172q217 0 336 -145q110 -134 110 -355q0 -75 -10 -123h-645q6 -98 99 -149q76 -41 184 -41q149 0 276 41l41 -211q-156 -64 -362 -64q-246 0 -388 132q-147 136 -147 380zM264 1122l200 312h197l203 -312h-197l-102 176h-4l-103 -176 h-194zM362 614h369q0 74 -35 129q-47 74 -142 74q-82 0 -135 -62q-48 -56 -57 -141z" />
<glyph unicode="&#xeb;" d="M67 489q0 211 123 363q139 172 383 172q217 0 336 -145q110 -134 110 -355q0 -75 -10 -123h-645q6 -98 99 -149q76 -41 184 -41q149 0 276 41l41 -211q-156 -64 -362 -64q-246 0 -388 132q-147 136 -147 380zM227 1257q0 61 40 101.5t101 40.5q60 0 97.5 -40.5 t37.5 -101.5q0 -58 -38.5 -98.5t-96.5 -40.5h-2q-58 0 -98.5 40.5t-40.5 98.5zM362 614h369q0 74 -35 129q-47 74 -142 74q-82 0 -135 -62q-48 -56 -57 -141zM645 1257q0 62 39.5 102t101.5 40q60 0 97.5 -40.5t37.5 -101.5q0 -58 -39.5 -98.5t-97.5 -40.5h-2 q-58 0 -97.5 40.5t-39.5 98.5z" />
<glyph unicode="&#xec;" horiz-adv-x="561" d="M-59 1434h287l176 -312h-211zM127 0v1001h312v-1001h-312z" />
<glyph unicode="&#xed;" horiz-adv-x="561" d="M124 0v1001h311v-1001h-311zM151 1122l176 312h286l-249 -312h-213z" />
<glyph unicode="&#xee;" horiz-adv-x="561" d="M-18 1122l201 312h196l203 -312h-197l-102 176h-4l-102 -176h-195zM123 0v1001h312v-1001h-312z" />
<glyph unicode="&#xef;" horiz-adv-x="561" d="M-67 1257q0 61 40 101.5t101 40.5t98 -40.5t37 -101.5q0 -59 -38.5 -99t-96.5 -40h-2q-58 0 -98.5 40.5t-40.5 98.5zM123 0v1001h312v-1001h-312zM351 1257q0 62 39.5 102t101.5 40q60 0 97.5 -40.5t37.5 -101.5q0 -58 -39.5 -98.5t-97.5 -40.5h-2q-57 0 -97 41t-40 98z " />
<glyph unicode="&#xf0;" horiz-adv-x="1175" d="M69 485q0 210 132.5 345t342.5 139q84 2 146 -39l4 4q-80 106 -179 172l-294 -127l-56 123l215 96q-75 49 -192 98l135 174q164 -57 324 -161l282 121l62 -121l-217 -92q335 -267 335 -691q0 -243 -139 -394q-143 -155 -383 -155q-227 0 -371 140q-147 142 -147 368z M388 487q0 -111 43 -189q54 -97 156 -97h2q107 0 158 100q39 77 39 195q0 284 -195 284q-105 0 -160 -100q-43 -78 -43 -193z" />
<glyph unicode="&#xf1;" horiz-adv-x="1200" d="M116 1001h270l15 -137h6q100 160 309 160q182 0 276 -128q82 -113 82 -302v-594h-311v555q0 219 -158 219q-79 0 -126 -60q-44 -55 -44 -136v-578h-311v682q0 149 -8 319zM319 1139q-4 256 157 256q59 0 136 -43q70 -39 88 -39q47 0 55 90h135q4 -250 -160 -250 q-63 0 -143 45q-59 33 -80 33q-43 0 -49 -92h-139z" />
<glyph unicode="&#xf2;" horiz-adv-x="1179" d="M67 494q0 243 145.5 386.5t389.5 143.5q230 0 371 -141t141 -371q0 -261 -164 -406q-145 -129 -363 -129h-2q-231 0 -374.5 143t-143.5 374zM270 1434h286l177 -312h-211zM386 502q0 -118 42 -198q54 -103 161 -103h2q104 0 157 104q42 83 42 197q0 116 -41 197 q-53 104 -158 104q-106 0 -161 -103q-44 -82 -44 -198z" />
<glyph unicode="&#xf3;" horiz-adv-x="1179" d="M67 494q0 243 145.5 386.5t389.5 143.5q230 0 371 -141t141 -371q0 -261 -164 -406q-145 -129 -363 -129h-2q-231 0 -374.5 143t-143.5 374zM386 502q0 -118 42 -198q54 -103 161 -103h2q104 0 157 104q42 83 42 197q0 116 -41 197q-53 104 -158 104q-106 0 -161 -103 q-44 -82 -44 -198zM452 1122l176 312h287l-250 -312h-213z" />
<glyph unicode="&#xf4;" horiz-adv-x="1179" d="M67 494q0 243 145.5 386.5t389.5 143.5q230 0 371 -141t141 -371q0 -261 -164 -406q-145 -129 -363 -129h-2q-231 0 -374.5 143t-143.5 374zM290 1122l201 312h197l202 -312h-196l-103 176h-4l-102 -176h-195zM386 502q0 -118 42 -198q54 -103 161 -103h2q104 0 157 104 q42 83 42 197q0 116 -41 197q-53 104 -158 104q-106 0 -161 -103q-44 -82 -44 -198z" />
<glyph unicode="&#xf5;" horiz-adv-x="1179" d="M67 494q0 243 145.5 386.5t389.5 143.5q230 0 371 -141t141 -371q0 -261 -164 -406q-145 -129 -363 -129h-2q-231 0 -374.5 143t-143.5 374zM305 1139q-4 256 157 256q58 0 135 -43q70 -39 88 -39q48 0 56 90h135q4 -250 -160 -250q-63 0 -143 45q-59 33 -80 33 q-43 0 -49 -92h-139zM386 502q0 -118 42 -198q54 -103 161 -103h2q104 0 157 104q42 83 42 197q0 116 -41 197q-53 104 -158 104q-106 0 -161 -103q-44 -82 -44 -198z" />
<glyph unicode="&#xf6;" horiz-adv-x="1179" d="M67 494q0 243 145.5 386.5t389.5 143.5q230 0 371 -141t141 -371q0 -261 -164 -406q-145 -129 -363 -129h-2q-231 0 -374.5 143t-143.5 374zM241 1257q0 61 40 101.5t101 40.5t98.5 -40.5t37.5 -101.5q0 -58 -39 -98.5t-97 -40.5h-2q-58 0 -98.5 40.5t-40.5 98.5z M386 502q0 -118 42 -198q54 -103 161 -103h2q104 0 157 104q42 83 42 197q0 116 -41 197q-53 104 -158 104q-106 0 -161 -103q-44 -82 -44 -198zM659 1257q0 62 39.5 102t101.5 40q61 0 98 -40.5t37 -101.5q0 -59 -39 -99t-98 -40h-2q-57 0 -97 41t-40 98z" />
<glyph unicode="&#xf7;" horiz-adv-x="1220" d="M79 451v192h1057v-192h-1057zM458 186q0 68 40.5 110t108.5 42q69 0 109.5 -41.5t40.5 -110.5q0 -68 -41 -109.5t-109 -41.5h-2q-66 0 -106.5 42.5t-40.5 108.5zM460 905q0 68 40.5 111t108.5 43q69 0 109.5 -42.5t40.5 -111.5q0 -67 -41.5 -108t-108.5 -41h-2 q-65 0 -106 42t-41 107z" />
<glyph unicode="&#xf8;" horiz-adv-x="1179" d="M67 500q0 236 143 380t379 144h2q138 0 242 -53l96 141l109 -76l-92 -137q168 -143 168 -395q0 -253 -164 -398q-145 -129 -359 -129q-137 0 -237 54l-101 -146l-102 82l90 133q-174 142 -174 400zM368 502q0 -99 37 -160l4 -2l293 426q-47 37 -111 37q-113 0 -173 -98 q-50 -83 -50 -203zM487 238q39 -37 104 -37q115 0 174 94q50 79 50 201q0 90 -31 155l-6 2z" />
<glyph unicode="&#xf9;" horiz-adv-x="1193" d="M120 414v587h313v-538q0 -234 156 -234q113 0 156 109q10 25 10 68v595h313v-679q0 -164 8 -322h-270l-14 141h-6q-105 -164 -314 -164q-184 0 -275 132q-77 112 -77 305zM261 1434h287l176 -312h-211z" />
<glyph unicode="&#xfa;" horiz-adv-x="1193" d="M120 414v587h313v-538q0 -234 156 -234q113 0 156 109q10 25 10 68v595h313v-679q0 -164 8 -322h-270l-14 141h-6q-105 -164 -314 -164q-184 0 -275 132q-77 112 -77 305zM468 1122l176 312h287l-250 -312h-213z" />
<glyph unicode="&#xfb;" horiz-adv-x="1193" d="M120 414v587h313v-538q0 -234 156 -234q113 0 156 109q10 25 10 68v595h313v-679q0 -164 8 -322h-270l-14 141h-6q-105 -164 -314 -164q-184 0 -275 132q-77 112 -77 305zM298 1122l201 312h196l203 -312h-196l-103 176h-4l-102 -176h-195z" />
<glyph unicode="&#xfc;" horiz-adv-x="1193" d="M120 414v587h313v-538q0 -234 156 -234q113 0 156 109q10 25 10 68v595h313v-679q0 -164 8 -322h-270l-14 141h-6q-105 -164 -314 -164q-184 0 -275 132q-77 112 -77 305zM255 1257q0 61 40 101.5t101 40.5t98.5 -40.5t37.5 -101.5q0 -58 -39 -98.5t-97 -40.5h-2 q-58 0 -98.5 40.5t-40.5 98.5zM673 1257q0 62 39.5 102t101.5 40q61 0 98 -40.5t37 -101.5q0 -59 -39 -99t-98 -40h-2q-57 0 -97 41t-40 98z" />
<glyph unicode="&#xfd;" horiz-adv-x="1071" d="M12 1001h346l150 -491q11 -36 49 -186h6q19 81 45 186l123 491h334l-234 -659q-179 -505 -352 -657q-135 -119 -301 -138l-66 265q176 29 265 178q16 27 16 45q0 16 -14 51zM432 1122l176 312h287l-250 -312h-213z" />
<glyph unicode="&#xfe;" horiz-adv-x="1224" d="M124 -406v1792h311v-507h4q96 142 299 145q198 3 314 -162q102 -145 102 -352q0 -258 -147 -406q-127 -127 -303 -127q-179 0 -265 117h-4v-500h-311zM435 410q0 -56 29 -97q53 -96 162 -96q110 0 166 94q47 78 47 195q0 109 -47 184q-55 90 -158 90q-125 0 -178 -114 q-21 -45 -21 -84v-172z" />
<glyph unicode="&#xff;" horiz-adv-x="1071" d="M12 1001h346l150 -491q11 -36 49 -186h6q19 81 45 186l123 491h334l-234 -659q-179 -505 -352 -657q-135 -119 -301 -138l-66 265q176 29 265 178q16 27 16 45q0 16 -14 51zM211 1257q0 61 40 101.5t101 40.5q60 0 97.5 -40.5t37.5 -101.5q0 -58 -38.5 -98.5t-96.5 -40.5 h-2q-58 0 -98.5 40.5t-40.5 98.5zM628 1257q0 62 40 102t102 40q60 0 97.5 -40.5t37.5 -101.5q0 -58 -39.5 -98.5t-97.5 -40.5h-2q-58 0 -98 40.5t-40 98.5z" />
<glyph unicode="&#x2c6;" horiz-adv-x="614" d="M8 1122l201 312h196l203 -312h-197l-102 176h-4l-102 -176h-195z" />
<glyph unicode="&#x2dc;" horiz-adv-x="614" d="M22 1139q-4 256 158 256q57 0 135 -43q70 -39 88 -39q47 0 55 90h135q5 -250 -159 -250q-64 0 -144 45q-59 33 -80 33q-43 0 -49 -92h-139z" />
<glyph unicode="&#x2000;" horiz-adv-x="871" />
<glyph unicode="&#x2001;" horiz-adv-x="1743" />
<glyph unicode="&#x2002;" horiz-adv-x="871" />
<glyph unicode="&#x2003;" horiz-adv-x="1743" />
<glyph unicode="&#x2004;" horiz-adv-x="581" />
<glyph unicode="&#x2005;" horiz-adv-x="435" />
<glyph unicode="&#x2006;" horiz-adv-x="290" />
<glyph unicode="&#x2007;" horiz-adv-x="290" />
<glyph unicode="&#x2008;" horiz-adv-x="217" />
<glyph unicode="&#x2009;" horiz-adv-x="348" />
<glyph unicode="&#x200a;" horiz-adv-x="96" />
<glyph unicode="&#x2010;" horiz-adv-x="659" d="M61 434v207h537v-207h-537z" />
<glyph unicode="&#x2011;" horiz-adv-x="659" d="M61 434v207h537v-207h-537z" />
<glyph unicode="&#x2012;" horiz-adv-x="659" d="M61 434v207h537v-207h-537z" />
<glyph unicode="&#x2013;" horiz-adv-x="1024" d="M61 424v192h901v-192h-901z" />
<glyph unicode="&#x2014;" horiz-adv-x="2048" d="M61 424v192h1925v-192h-1925z" />
<glyph unicode="&#x2018;" horiz-adv-x="532" d="M55 846q98 313 246 555l188 16q-102 -284 -143 -551z" />
<glyph unicode="&#x2019;" horiz-adv-x="532" d="M53 846q100 284 141 553l293 18q-100 -313 -246 -553z" />
<glyph unicode="&#x201a;" horiz-adv-x="532" d="M32 -213q102 285 143 551l291 20q-98 -313 -246 -555z" />
<glyph unicode="&#x201c;" horiz-adv-x="929" d="M53 846q98 313 246 555l188 16q-102 -284 -143 -551zM452 846q101 313 246 555l189 16q-101 -284 -144 -551z" />
<glyph unicode="&#x201d;" horiz-adv-x="929" d="M51 846q100 284 143 553l291 18q-100 -313 -246 -553zM450 846q103 284 144 553l291 18q-99 -313 -246 -553z" />
<glyph unicode="&#x201e;" horiz-adv-x="937" d="M30 -213q102 285 143 551l291 20q-98 -313 -246 -555zM431 -213q101 285 144 551l291 20q-101 -313 -246 -555z" />
<glyph unicode="&#x2022;" horiz-adv-x="692" d="M79 702q-1 114 75.5 191.5t190.5 77.5t190.5 -77.5t76.5 -191.5t-76.5 -191t-190.5 -77h-2q-113 0 -188 77t-76 191z" />
<glyph unicode="&#x2026;" horiz-adv-x="2048" d="M157 166q0 84 50 137t134 53t133.5 -53t49.5 -137q0 -83 -51 -136t-134 -53h-2q-82 0 -131 53.5t-49 135.5zM837 166q0 83 50.5 136.5t133.5 53.5q85 0 135 -52.5t50 -137.5q0 -83 -51 -136t-134 -53h-2q-82 0 -132 53.5t-50 135.5zM1519 166q0 83 50.5 136.5t133.5 53.5 q84 0 134 -53t51 -137q1 -82 -51 -135.5t-134 -53.5h-2q-82 0 -132 53.5t-50 135.5z" />
<glyph unicode="&#x202f;" horiz-adv-x="348" />
<glyph unicode="&#x2039;" horiz-adv-x="552" d="M53 516l238 391h217l-244 -391l244 -391h-217z" />
<glyph unicode="&#x203a;" horiz-adv-x="552" d="M45 125l246 391l-246 391h215l240 -391l-240 -391h-215z" />
<glyph unicode="&#x205f;" horiz-adv-x="435" />
<glyph unicode="&#x20ac;" horiz-adv-x="1108" d="M-44 633l17 80h105q0 30 2 60h-90l17 80h83q19 109 68 217q80 176 238 280t333 104q94 0 142.5 -21t57.5 -21q21 0 21 44h84l89 -298h-89q-56 133 -152 178.5t-197 45.5q-150 -9 -257 -202q-79 -142 -100 -327h571l-17 -80h-561q-1 -30 -1 -60h546l-17 -80h-526 q18 -208 131 -383q133 -209 290 -209h2q130 2 221.5 72t93.5 185h81v-146q0 -56 -94.5 -117t-301.5 -64q-196 0 -353.5 105.5t-235.5 279.5q-62 136 -75 277h-126z" />
<glyph unicode="&#x2122;" horiz-adv-x="1775" d="M32 1217v163h653v-163h-229v-652h-199v652h-225zM732 565l56 815h272l90 -317q4 -14 58 -234h4q15 62 65 236l98 315h256l54 -815h-195l-18 389q-1 49 -6 277h-4q-32 -130 -78 -277l-117 -374h-154l-104 381q-17 70 -66 270h-4q0 -155 -6 -273l-20 -393h-181z" />
<glyph unicode="&#x25fc;" horiz-adv-x="990" d="M0 0v990h990v-990h-990z" />
</font>
</defs>
</svg>
